# xmcd
#
# Track frame offsets:
#	150
#	12115
#	23470
#	35486
#	47162
#	61645
#	75650
#	91948
#	106003
#	120063
#	134945
#	148059
#	161932
#	174869
#	186620
#	200080
#	213249
#	225995
#	237609
#	249716
#	263074
#	278600
#	291754
#	305980
#
# Disc length: 4274 seconds
#
# Revision: 1
# Processed by: cddbd v1.5.1PL0 Copyright (c) Steve Scherf et al.
# Submitted via: audiograbber 1.83.01
#
DISCID=5210b018
DTITLE=Female Blues Singers - Complete Recorded Works - 1997 - Vol 11 - J-L (19
DTITLE=21-1931) DOCD-5515
DYEAR=1997
DGENRE=Blues
TTITLE0=Four O'Clock Blues
TTITLE1=Sugar Blues
TTITLE2=Rockin' Chair
TTITLE3=Careless Love
TTITLE4=I Wonder What's Become Of Sally?
TTITLE5=Just One Word Of Consolation
TTITLE6=Baby's Got The Blues
TTITLE7=I Ain't Givin' Nothin' Away
TTITLE8=Arkansas Blues
TTITLE9=Aggravatin' Papa
TTITLE10=I'm A Harmony Baby
TTITLE11=If Your Man Is Like My Man
TTITLE12='Tain't Nobody's Biz-ness If I Do
TTITLE13=Papa Better Watch Your Step
TTITLE14=Rounders Blues
TTITLE15=Wandering Papa Blues
TTITLE16=I Needs Aplenty Of Grease In My Frying Pan
TTITLE17=Crap Shootin' Papa, Mama Done Caught Your Dice
TTITLE18=Harlem Blues
TTITLE19=Somebody's Been Loving My Baby
TTITLE20=Bow Down Blues
TTITLE21=Moving Day Blues
TTITLE22=Poor Girl Blues
TTITLE23=Thirty Day Blues
EXTD=Document Records, Austria
EXTT0=
EXTT1=
EXTT2=
EXTT3=
EXTT4=
EXTT5=
EXTT6=
EXTT7=
EXTT8=
EXTT9=
EXTT10=
EXTT11=
EXTT12=
EXTT13=
EXTT14=
EXTT15=
EXTT16=
EXTT17=
EXTT18=
EXTT19=
EXTT20=
EXTT21=
EXTT22=
EXTT23=
PLAYORDER=
